<svg width="32" height="32" viewBox="0 0 32 32" fill="none" xmlns="http://www.w3.org/2000/svg">
<g clip-path="url(#clip0_4520_977)">
<path d="M30.8694 5.10669C29.9873 3.58244 28.7196 2.30406 27.2035 1.40981C25.6399 0.4875 23.8491 0 22.0246 0C20.2002 0 18.4092 0.4875 16.8457 1.40981C15.3296 2.30412 14.0619 3.5825 13.1798 5.10669C12.9997 5.41788 13.0134 5.8045 13.2151 6.10213L17.247 12.0536C17.2704 12.0519 17.2937 12.05 17.3176 12.05H20.2217L19.6289 10.2714C19.4652 9.78025 19.7307 9.24931 20.2219 9.08556C20.7131 8.92194 21.244 9.18738 21.4077 9.6785L22.0246 11.5292L22.6415 9.6785C22.8052 9.18731 23.3361 8.92181 23.8274 9.08556C24.3186 9.24931 24.584 9.78019 24.4203 10.2714L23.8275 12.05H26.7317C26.7556 12.05 26.7789 12.0518 26.8023 12.0536L30.8342 6.10213C31.0357 5.8045 31.0494 5.41788 30.8694 5.10669Z" fill="#388FF3"/>
<path d="M18.0752 30.0592C18.0752 31.1298 18.9462 32.0008 20.0168 32.0008H24.0336C25.1042 32.0008 25.9752 31.1298 25.9752 30.0592V13.9258H18.0752V30.0592Z" fill="#388FF3"/>
<path d="M2.00781 11.916H10.912V21.0868H2.00781V11.916Z" fill="#388FF3"/>
<path d="M1.00391 30.0588C1.00391 31.1294 1.87491 32.0004 2.94553 32.0004H9.97478C11.0454 32.0004 11.9164 31.1294 11.9164 30.0588V22.9629H1.00391V30.0588Z" fill="#388FF3"/>
<path d="M9.90857 1.94208C9.90857 1.0097 9.24326 0.306641 8.36107 0.306641C8.13801 0.306641 7.91238 0.351641 7.69057 0.440453L4.53438 1.70289C3.66688 2.04989 3.0127 3.01614 3.0127 3.95045V10.0421H9.90857V1.94208Z" fill="#388FF3"/>
</g>
<defs>
<clipPath id="clip0_4520_977">
<rect width="32" height="32" fill="white"/>
</clipPath>
</defs>
</svg>
